<mxfile host="Electron" agent="Mozilla/5.0 (Windows NT 10.0; Win64; x64) AppleWebKit/537.36 (KHTML, like Gecko) draw.io/25.0.2 Chrome/128.0.6613.186 Electron/32.2.5 Safari/537.36" version="25.0.2">
  <diagram name="Страница — 1" id="UCXHp9YAcykKcjA87ikl">
    <mxGraphModel dx="2117" dy="717" grid="1" gridSize="10" guides="1" tooltips="1" connect="1" arrows="1" fold="1" page="1" pageScale="1" pageWidth="827" pageHeight="1169" math="0" shadow="0">
      <root>
        <mxCell id="0" />
        <mxCell id="1" parent="0" />
        <mxCell id="BsxrMvfNn_mnEMPm_ctR-7" style="edgeStyle=orthogonalEdgeStyle;rounded=0;orthogonalLoop=1;jettySize=auto;html=1;exitX=0.5;exitY=1;exitDx=0;exitDy=0;exitPerimeter=0;entryX=0.5;entryY=0;entryDx=0;entryDy=0;" edge="1" parent="1" source="BsxrMvfNn_mnEMPm_ctR-1" target="BsxrMvfNn_mnEMPm_ctR-6">
          <mxGeometry relative="1" as="geometry" />
        </mxCell>
        <mxCell id="BsxrMvfNn_mnEMPm_ctR-1" value="Начало" style="strokeWidth=2;html=1;shape=mxgraph.flowchart.start_1;whiteSpace=wrap;" vertex="1" parent="1">
          <mxGeometry x="364" y="10" width="100" height="60" as="geometry" />
        </mxCell>
        <mxCell id="BsxrMvfNn_mnEMPm_ctR-2" value="" style="strokeWidth=2;html=1;shape=mxgraph.flowchart.annotation_2;align=left;labelPosition=right;pointerEvents=1;" vertex="1" parent="1">
          <mxGeometry x="464" y="30" width="50" height="100" as="geometry" />
        </mxCell>
        <mxCell id="BsxrMvfNn_mnEMPm_ctR-4" value="&lt;div style=&quot;text-align: justify;&quot;&gt;#include &amp;lt;iostream&amp;gt;&lt;/div&gt;&lt;div style=&quot;text-align: justify;&quot;&gt;#include &amp;lt;cmath&amp;gt;&lt;/div&gt;&lt;div style=&quot;text-align: justify;&quot;&gt;using namespace std;&lt;/div&gt;&lt;div style=&quot;text-align: justify;&quot;&gt;const double pi = 3.14159;&lt;/div&gt;&lt;div style=&quot;text-align: justify;&quot;&gt;&lt;div&gt;double x, a, b, k;&lt;/div&gt;&lt;div&gt;int m;&lt;/div&gt;&lt;/div&gt;" style="text;html=1;align=center;verticalAlign=middle;resizable=0;points=[];autosize=1;strokeColor=none;fillColor=none;" vertex="1" parent="1">
          <mxGeometry x="490" y="30" width="160" height="100" as="geometry" />
        </mxCell>
        <mxCell id="BsxrMvfNn_mnEMPm_ctR-5" value="" style="endArrow=none;dashed=1;html=1;rounded=0;entryX=0.5;entryY=1;entryDx=0;entryDy=0;entryPerimeter=0;exitX=0;exitY=0.5;exitDx=0;exitDy=0;exitPerimeter=0;" edge="1" parent="1" source="BsxrMvfNn_mnEMPm_ctR-2" target="BsxrMvfNn_mnEMPm_ctR-1">
          <mxGeometry width="50" height="50" relative="1" as="geometry">
            <mxPoint x="380" y="160" as="sourcePoint" />
            <mxPoint x="430" y="110" as="targetPoint" />
            <Array as="points">
              <mxPoint x="414" y="80" />
            </Array>
          </mxGeometry>
        </mxCell>
        <mxCell id="BsxrMvfNn_mnEMPm_ctR-12" style="edgeStyle=orthogonalEdgeStyle;rounded=0;orthogonalLoop=1;jettySize=auto;html=1;exitX=0.5;exitY=1;exitDx=0;exitDy=0;entryX=0.5;entryY=0;entryDx=0;entryDy=0;" edge="1" parent="1" source="BsxrMvfNn_mnEMPm_ctR-6" target="BsxrMvfNn_mnEMPm_ctR-8">
          <mxGeometry relative="1" as="geometry" />
        </mxCell>
        <mxCell id="BsxrMvfNn_mnEMPm_ctR-6" value="int main()" style="shape=process;whiteSpace=wrap;html=1;backgroundOutline=1;" vertex="1" parent="1">
          <mxGeometry x="354" y="100" width="120" height="60" as="geometry" />
        </mxCell>
        <mxCell id="BsxrMvfNn_mnEMPm_ctR-13" style="edgeStyle=orthogonalEdgeStyle;rounded=0;orthogonalLoop=1;jettySize=auto;html=1;exitX=0.5;exitY=1;exitDx=0;exitDy=0;entryX=0.5;entryY=0;entryDx=0;entryDy=0;" edge="1" parent="1" source="BsxrMvfNn_mnEMPm_ctR-8" target="BsxrMvfNn_mnEMPm_ctR-9">
          <mxGeometry relative="1" as="geometry" />
        </mxCell>
        <mxCell id="BsxrMvfNn_mnEMPm_ctR-8" value="setlocale(LC_ALL, &quot;RU&quot;);" style="rounded=0;whiteSpace=wrap;html=1;" vertex="1" parent="1">
          <mxGeometry x="354" y="180" width="120" height="60" as="geometry" />
        </mxCell>
        <mxCell id="BsxrMvfNn_mnEMPm_ctR-14" style="edgeStyle=orthogonalEdgeStyle;rounded=0;orthogonalLoop=1;jettySize=auto;html=1;exitX=0.5;exitY=1;exitDx=0;exitDy=0;entryX=0.5;entryY=0;entryDx=0;entryDy=0;" edge="1" parent="1" source="BsxrMvfNn_mnEMPm_ctR-9" target="BsxrMvfNn_mnEMPm_ctR-11">
          <mxGeometry relative="1" as="geometry" />
        </mxCell>
        <mxCell id="BsxrMvfNn_mnEMPm_ctR-9" value="&lt;div&gt;a = 0.1;&lt;/div&gt;&lt;div&gt;b = 1;&lt;/div&gt;&lt;div&gt;k = 10;&lt;/div&gt;&lt;div&gt;x = 0.1;&lt;/div&gt;" style="rounded=0;whiteSpace=wrap;html=1;" vertex="1" parent="1">
          <mxGeometry x="354" y="260" width="120" height="60" as="geometry" />
        </mxCell>
        <mxCell id="BsxrMvfNn_mnEMPm_ctR-18" style="edgeStyle=orthogonalEdgeStyle;rounded=0;orthogonalLoop=1;jettySize=auto;html=1;exitX=0.5;exitY=1;exitDx=0;exitDy=0;entryX=0.5;entryY=0;entryDx=0;entryDy=0;" edge="1" parent="1" source="BsxrMvfNn_mnEMPm_ctR-11" target="BsxrMvfNn_mnEMPm_ctR-15">
          <mxGeometry relative="1" as="geometry" />
        </mxCell>
        <mxCell id="BsxrMvfNn_mnEMPm_ctR-11" value="while (x &amp;lt;= b)" style="rhombus;whiteSpace=wrap;html=1;" vertex="1" parent="1">
          <mxGeometry x="374" y="340" width="80" height="50" as="geometry" />
        </mxCell>
        <mxCell id="BsxrMvfNn_mnEMPm_ctR-19" style="edgeStyle=orthogonalEdgeStyle;rounded=0;orthogonalLoop=1;jettySize=auto;html=1;exitX=0.5;exitY=1;exitDx=0;exitDy=0;entryX=0.5;entryY=0;entryDx=0;entryDy=0;" edge="1" parent="1" source="BsxrMvfNn_mnEMPm_ctR-15" target="BsxrMvfNn_mnEMPm_ctR-16">
          <mxGeometry relative="1" as="geometry" />
        </mxCell>
        <mxCell id="BsxrMvfNn_mnEMPm_ctR-15" value="cout &amp;lt;&amp;lt; &quot;X=&amp;nbsp; &quot; &amp;lt;&amp;lt; x &amp;lt;&amp;lt; &quot;|&quot; &amp;lt;&amp;lt; &quot;&amp;nbsp; Сумма N=&amp;nbsp; &quot; &amp;lt;&amp;lt; SummaN(x) &amp;lt;&amp;lt; &quot;|&quot; &amp;lt;&amp;lt; &quot;&amp;nbsp; Сумма E=&amp;nbsp; &quot; &amp;lt;&amp;lt; SummaE(x) &amp;lt;&amp;lt; &quot;|&quot; &amp;lt;&amp;lt; &quot;&amp;nbsp; f(x)=&amp;nbsp; &quot; &amp;lt;&amp;lt; f(x) &amp;lt;&amp;lt; endl;" style="shape=parallelogram;perimeter=parallelogramPerimeter;whiteSpace=wrap;html=1;fixedSize=1;" vertex="1" parent="1">
          <mxGeometry x="354" y="410" width="120" height="60" as="geometry" />
        </mxCell>
        <mxCell id="BsxrMvfNn_mnEMPm_ctR-17" style="edgeStyle=orthogonalEdgeStyle;rounded=0;orthogonalLoop=1;jettySize=auto;html=1;exitX=0.5;exitY=1;exitDx=0;exitDy=0;entryX=0;entryY=0.5;entryDx=0;entryDy=0;" edge="1" parent="1" source="BsxrMvfNn_mnEMPm_ctR-16" target="BsxrMvfNn_mnEMPm_ctR-11">
          <mxGeometry relative="1" as="geometry">
            <Array as="points">
              <mxPoint x="414" y="570" />
              <mxPoint x="310" y="570" />
              <mxPoint x="310" y="365" />
            </Array>
          </mxGeometry>
        </mxCell>
        <mxCell id="BsxrMvfNn_mnEMPm_ctR-16" value="x += (b - a) / k;" style="rounded=0;whiteSpace=wrap;html=1;" vertex="1" parent="1">
          <mxGeometry x="354" y="490" width="120" height="60" as="geometry" />
        </mxCell>
        <mxCell id="BsxrMvfNn_mnEMPm_ctR-20" value="return 0;" style="strokeWidth=2;html=1;shape=mxgraph.flowchart.start_1;whiteSpace=wrap;" vertex="1" parent="1">
          <mxGeometry x="454" y="585" width="100" height="60" as="geometry" />
        </mxCell>
        <mxCell id="BsxrMvfNn_mnEMPm_ctR-21" style="edgeStyle=orthogonalEdgeStyle;rounded=0;orthogonalLoop=1;jettySize=auto;html=1;exitX=1;exitY=0.5;exitDx=0;exitDy=0;entryX=0.5;entryY=0;entryDx=0;entryDy=0;entryPerimeter=0;" edge="1" parent="1" source="BsxrMvfNn_mnEMPm_ctR-11" target="BsxrMvfNn_mnEMPm_ctR-20">
          <mxGeometry relative="1" as="geometry" />
        </mxCell>
        <mxCell id="BsxrMvfNn_mnEMPm_ctR-23" value="double SummaE(double x)" style="shape=process;whiteSpace=wrap;html=1;backgroundOutline=1;" vertex="1" parent="1">
          <mxGeometry x="165" y="100" width="120" height="60" as="geometry" />
        </mxCell>
        <mxCell id="BsxrMvfNn_mnEMPm_ctR-26" value="return SummaE_recursive(x);" style="strokeWidth=2;html=1;shape=mxgraph.flowchart.start_1;whiteSpace=wrap;" vertex="1" parent="1">
          <mxGeometry x="175" y="180" width="100" height="60" as="geometry" />
        </mxCell>
        <mxCell id="BsxrMvfNn_mnEMPm_ctR-27" style="edgeStyle=orthogonalEdgeStyle;rounded=0;orthogonalLoop=1;jettySize=auto;html=1;exitX=0.5;exitY=1;exitDx=0;exitDy=0;entryX=0.5;entryY=0;entryDx=0;entryDy=0;entryPerimeter=0;" edge="1" parent="1" source="BsxrMvfNn_mnEMPm_ctR-23" target="BsxrMvfNn_mnEMPm_ctR-26">
          <mxGeometry relative="1" as="geometry" />
        </mxCell>
        <mxCell id="BsxrMvfNn_mnEMPm_ctR-34" style="edgeStyle=orthogonalEdgeStyle;rounded=0;orthogonalLoop=1;jettySize=auto;html=1;exitX=0.5;exitY=1;exitDx=0;exitDy=0;entryX=0.5;entryY=0;entryDx=0;entryDy=0;" edge="1" parent="1" source="BsxrMvfNn_mnEMPm_ctR-29" target="BsxrMvfNn_mnEMPm_ctR-33">
          <mxGeometry relative="1" as="geometry" />
        </mxCell>
        <mxCell id="BsxrMvfNn_mnEMPm_ctR-29" value="double SummaE_recursive(double x, double a = 1, int i = 1, double sumE = 1)" style="shape=process;whiteSpace=wrap;html=1;backgroundOutline=1;" vertex="1" parent="1">
          <mxGeometry x="-15" y="100" width="120" height="60" as="geometry" />
        </mxCell>
        <mxCell id="BsxrMvfNn_mnEMPm_ctR-38" style="edgeStyle=orthogonalEdgeStyle;rounded=0;orthogonalLoop=1;jettySize=auto;html=1;exitX=1;exitY=0.5;exitDx=0;exitDy=0;" edge="1" parent="1" source="BsxrMvfNn_mnEMPm_ctR-33">
          <mxGeometry relative="1" as="geometry">
            <mxPoint x="45" y="320" as="targetPoint" />
            <Array as="points">
              <mxPoint x="105" y="205" />
              <mxPoint x="105" y="320" />
            </Array>
          </mxGeometry>
        </mxCell>
        <mxCell id="BsxrMvfNn_mnEMPm_ctR-33" value="if (a &amp;lt;= 1e-4)" style="rhombus;whiteSpace=wrap;html=1;" vertex="1" parent="1">
          <mxGeometry x="5" y="180" width="80" height="50" as="geometry" />
        </mxCell>
        <mxCell id="BsxrMvfNn_mnEMPm_ctR-37" style="edgeStyle=orthogonalEdgeStyle;rounded=0;orthogonalLoop=1;jettySize=auto;html=1;exitX=0.5;exitY=1;exitDx=0;exitDy=0;exitPerimeter=0;" edge="1" parent="1" source="BsxrMvfNn_mnEMPm_ctR-35">
          <mxGeometry relative="1" as="geometry">
            <mxPoint x="45" y="320" as="targetPoint" />
          </mxGeometry>
        </mxCell>
        <mxCell id="BsxrMvfNn_mnEMPm_ctR-35" value="return sumE;" style="strokeWidth=2;html=1;shape=mxgraph.flowchart.start_1;whiteSpace=wrap;" vertex="1" parent="1">
          <mxGeometry x="-65" y="240" width="100" height="60" as="geometry" />
        </mxCell>
        <mxCell id="BsxrMvfNn_mnEMPm_ctR-36" style="edgeStyle=orthogonalEdgeStyle;rounded=0;orthogonalLoop=1;jettySize=auto;html=1;exitX=0;exitY=0.5;exitDx=0;exitDy=0;entryX=0.5;entryY=0;entryDx=0;entryDy=0;entryPerimeter=0;" edge="1" parent="1" source="BsxrMvfNn_mnEMPm_ctR-33" target="BsxrMvfNn_mnEMPm_ctR-35">
          <mxGeometry relative="1" as="geometry" />
        </mxCell>
        <mxCell id="BsxrMvfNn_mnEMPm_ctR-43" style="edgeStyle=orthogonalEdgeStyle;rounded=0;orthogonalLoop=1;jettySize=auto;html=1;exitX=0.5;exitY=1;exitDx=0;exitDy=0;entryX=0.5;entryY=0;entryDx=0;entryDy=0;" edge="1" parent="1" source="BsxrMvfNn_mnEMPm_ctR-39" target="BsxrMvfNn_mnEMPm_ctR-40">
          <mxGeometry relative="1" as="geometry" />
        </mxCell>
        <mxCell id="BsxrMvfNn_mnEMPm_ctR-39" value="a *= 1.0 * x / i;" style="rounded=0;whiteSpace=wrap;html=1;" vertex="1" parent="1">
          <mxGeometry x="-15" y="340" width="120" height="60" as="geometry" />
        </mxCell>
        <mxCell id="BsxrMvfNn_mnEMPm_ctR-40" value="sumE += (cos(i * pi / 4)) * a;" style="rounded=0;whiteSpace=wrap;html=1;" vertex="1" parent="1">
          <mxGeometry x="-15" y="420" width="120" height="60" as="geometry" />
        </mxCell>
        <mxCell id="BsxrMvfNn_mnEMPm_ctR-41" value="return SummaE_recursive(x, a, i + 1, sumE);" style="strokeWidth=2;html=1;shape=mxgraph.flowchart.start_1;whiteSpace=wrap;" vertex="1" parent="1">
          <mxGeometry x="-5" y="500" width="100" height="60" as="geometry" />
        </mxCell>
        <mxCell id="BsxrMvfNn_mnEMPm_ctR-42" value="" style="endArrow=classic;html=1;rounded=0;entryX=0.5;entryY=0;entryDx=0;entryDy=0;" edge="1" parent="1" target="BsxrMvfNn_mnEMPm_ctR-39">
          <mxGeometry width="50" height="50" relative="1" as="geometry">
            <mxPoint x="45" y="320" as="sourcePoint" />
            <mxPoint x="95" y="280" as="targetPoint" />
          </mxGeometry>
        </mxCell>
        <mxCell id="BsxrMvfNn_mnEMPm_ctR-44" style="edgeStyle=orthogonalEdgeStyle;rounded=0;orthogonalLoop=1;jettySize=auto;html=1;exitX=0.5;exitY=1;exitDx=0;exitDy=0;entryX=0.5;entryY=0;entryDx=0;entryDy=0;entryPerimeter=0;" edge="1" parent="1" source="BsxrMvfNn_mnEMPm_ctR-40" target="BsxrMvfNn_mnEMPm_ctR-41">
          <mxGeometry relative="1" as="geometry" />
        </mxCell>
        <mxCell id="BsxrMvfNn_mnEMPm_ctR-45" value="double SummaN(double x)" style="shape=process;whiteSpace=wrap;html=1;backgroundOutline=1;" vertex="1" parent="1">
          <mxGeometry x="-230" y="100" width="120" height="60" as="geometry" />
        </mxCell>
        <mxCell id="BsxrMvfNn_mnEMPm_ctR-46" value="return recursiveSummaN(x, 1, 1, 1);" style="strokeWidth=2;html=1;shape=mxgraph.flowchart.start_1;whiteSpace=wrap;" vertex="1" parent="1">
          <mxGeometry x="-220" y="180" width="100" height="60" as="geometry" />
        </mxCell>
        <mxCell id="BsxrMvfNn_mnEMPm_ctR-47" style="edgeStyle=orthogonalEdgeStyle;rounded=0;orthogonalLoop=1;jettySize=auto;html=1;exitX=0.5;exitY=1;exitDx=0;exitDy=0;entryX=0.5;entryY=0;entryDx=0;entryDy=0;entryPerimeter=0;" edge="1" parent="1" source="BsxrMvfNn_mnEMPm_ctR-45" target="BsxrMvfNn_mnEMPm_ctR-46">
          <mxGeometry relative="1" as="geometry" />
        </mxCell>
        <mxCell id="BsxrMvfNn_mnEMPm_ctR-48" style="edgeStyle=orthogonalEdgeStyle;rounded=0;orthogonalLoop=1;jettySize=auto;html=1;exitX=0.5;exitY=1;exitDx=0;exitDy=0;entryX=0.5;entryY=0;entryDx=0;entryDy=0;" edge="1" parent="1" source="BsxrMvfNn_mnEMPm_ctR-49" target="BsxrMvfNn_mnEMPm_ctR-51">
          <mxGeometry relative="1" as="geometry" />
        </mxCell>
        <mxCell id="BsxrMvfNn_mnEMPm_ctR-49" value="double recursiveSummaN(double x, int n, int m, double sumN)" style="shape=process;whiteSpace=wrap;html=1;backgroundOutline=1;" vertex="1" parent="1">
          <mxGeometry x="-400" y="100" width="120" height="60" as="geometry" />
        </mxCell>
        <mxCell id="BsxrMvfNn_mnEMPm_ctR-50" style="edgeStyle=orthogonalEdgeStyle;rounded=0;orthogonalLoop=1;jettySize=auto;html=1;exitX=1;exitY=0.5;exitDx=0;exitDy=0;" edge="1" parent="1" source="BsxrMvfNn_mnEMPm_ctR-51">
          <mxGeometry relative="1" as="geometry">
            <mxPoint x="-340" y="320" as="targetPoint" />
            <Array as="points">
              <mxPoint x="-280" y="205" />
              <mxPoint x="-280" y="320" />
            </Array>
          </mxGeometry>
        </mxCell>
        <mxCell id="BsxrMvfNn_mnEMPm_ctR-51" value="if (n &amp;gt; 25)" style="rhombus;whiteSpace=wrap;html=1;" vertex="1" parent="1">
          <mxGeometry x="-380" y="180" width="80" height="50" as="geometry" />
        </mxCell>
        <mxCell id="BsxrMvfNn_mnEMPm_ctR-52" style="edgeStyle=orthogonalEdgeStyle;rounded=0;orthogonalLoop=1;jettySize=auto;html=1;exitX=0.5;exitY=1;exitDx=0;exitDy=0;exitPerimeter=0;" edge="1" parent="1" source="BsxrMvfNn_mnEMPm_ctR-53">
          <mxGeometry relative="1" as="geometry">
            <mxPoint x="-340" y="320" as="targetPoint" />
          </mxGeometry>
        </mxCell>
        <mxCell id="BsxrMvfNn_mnEMPm_ctR-53" value="return sumN;" style="strokeWidth=2;html=1;shape=mxgraph.flowchart.start_1;whiteSpace=wrap;" vertex="1" parent="1">
          <mxGeometry x="-450" y="240" width="100" height="60" as="geometry" />
        </mxCell>
        <mxCell id="BsxrMvfNn_mnEMPm_ctR-54" style="edgeStyle=orthogonalEdgeStyle;rounded=0;orthogonalLoop=1;jettySize=auto;html=1;exitX=0;exitY=0.5;exitDx=0;exitDy=0;entryX=0.5;entryY=0;entryDx=0;entryDy=0;entryPerimeter=0;" edge="1" parent="1" source="BsxrMvfNn_mnEMPm_ctR-51" target="BsxrMvfNn_mnEMPm_ctR-53">
          <mxGeometry relative="1" as="geometry" />
        </mxCell>
        <mxCell id="BsxrMvfNn_mnEMPm_ctR-55" style="edgeStyle=orthogonalEdgeStyle;rounded=0;orthogonalLoop=1;jettySize=auto;html=1;exitX=0.5;exitY=1;exitDx=0;exitDy=0;entryX=0.5;entryY=0;entryDx=0;entryDy=0;" edge="1" parent="1" source="BsxrMvfNn_mnEMPm_ctR-56" target="BsxrMvfNn_mnEMPm_ctR-57">
          <mxGeometry relative="1" as="geometry" />
        </mxCell>
        <mxCell id="BsxrMvfNn_mnEMPm_ctR-56" value="m *= n;" style="rounded=0;whiteSpace=wrap;html=1;" vertex="1" parent="1">
          <mxGeometry x="-400" y="340" width="120" height="60" as="geometry" />
        </mxCell>
        <mxCell id="BsxrMvfNn_mnEMPm_ctR-57" value="sumN += ((cos(n * pi / 4)) / m) * pow(x, n);" style="rounded=0;whiteSpace=wrap;html=1;" vertex="1" parent="1">
          <mxGeometry x="-400" y="420" width="120" height="60" as="geometry" />
        </mxCell>
        <mxCell id="BsxrMvfNn_mnEMPm_ctR-58" value="return recursiveSummaN(x, n + 1, m, sumN);" style="strokeWidth=2;html=1;shape=mxgraph.flowchart.start_1;whiteSpace=wrap;" vertex="1" parent="1">
          <mxGeometry x="-390" y="500" width="100" height="60" as="geometry" />
        </mxCell>
        <mxCell id="BsxrMvfNn_mnEMPm_ctR-59" value="" style="endArrow=classic;html=1;rounded=0;entryX=0.5;entryY=0;entryDx=0;entryDy=0;" edge="1" parent="1" target="BsxrMvfNn_mnEMPm_ctR-56">
          <mxGeometry width="50" height="50" relative="1" as="geometry">
            <mxPoint x="-340" y="320" as="sourcePoint" />
            <mxPoint x="-290" y="280" as="targetPoint" />
          </mxGeometry>
        </mxCell>
        <mxCell id="BsxrMvfNn_mnEMPm_ctR-60" style="edgeStyle=orthogonalEdgeStyle;rounded=0;orthogonalLoop=1;jettySize=auto;html=1;exitX=0.5;exitY=1;exitDx=0;exitDy=0;entryX=0.5;entryY=0;entryDx=0;entryDy=0;entryPerimeter=0;" edge="1" parent="1" source="BsxrMvfNn_mnEMPm_ctR-57" target="BsxrMvfNn_mnEMPm_ctR-58">
          <mxGeometry relative="1" as="geometry" />
        </mxCell>
        <mxCell id="BsxrMvfNn_mnEMPm_ctR-61" value="double f(double x)" style="shape=process;whiteSpace=wrap;html=1;backgroundOutline=1;" vertex="1" parent="1">
          <mxGeometry x="-590" y="100" width="120" height="60" as="geometry" />
        </mxCell>
        <mxCell id="BsxrMvfNn_mnEMPm_ctR-62" value="return fabs(exp(x * cos(pi / 4)) * cos(x * sin(pi / 4)));" style="strokeWidth=2;html=1;shape=mxgraph.flowchart.start_1;whiteSpace=wrap;" vertex="1" parent="1">
          <mxGeometry x="-580" y="180" width="100" height="60" as="geometry" />
        </mxCell>
        <mxCell id="BsxrMvfNn_mnEMPm_ctR-63" style="edgeStyle=orthogonalEdgeStyle;rounded=0;orthogonalLoop=1;jettySize=auto;html=1;exitX=0.5;exitY=1;exitDx=0;exitDy=0;entryX=0.5;entryY=0;entryDx=0;entryDy=0;entryPerimeter=0;" edge="1" parent="1" source="BsxrMvfNn_mnEMPm_ctR-61" target="BsxrMvfNn_mnEMPm_ctR-62">
          <mxGeometry relative="1" as="geometry" />
        </mxCell>
        <mxCell id="BsxrMvfNn_mnEMPm_ctR-66" value="{" style="text;html=1;align=center;verticalAlign=middle;resizable=0;points=[];autosize=1;strokeColor=none;fillColor=none;" vertex="1" parent="1">
          <mxGeometry x="-630" y="110" width="30" height="30" as="geometry" />
        </mxCell>
        <mxCell id="BsxrMvfNn_mnEMPm_ctR-67" value="}" style="text;html=1;align=center;verticalAlign=middle;resizable=0;points=[];autosize=1;strokeColor=none;fillColor=none;" vertex="1" parent="1">
          <mxGeometry x="-495" y="238" width="30" height="30" as="geometry" />
        </mxCell>
        <mxCell id="BsxrMvfNn_mnEMPm_ctR-68" value="{" style="text;html=1;align=center;verticalAlign=middle;resizable=0;points=[];autosize=1;strokeColor=none;fillColor=none;" vertex="1" parent="1">
          <mxGeometry x="-435" y="128" width="30" height="30" as="geometry" />
        </mxCell>
        <mxCell id="BsxrMvfNn_mnEMPm_ctR-70" value="}" style="text;html=1;align=center;verticalAlign=middle;resizable=0;points=[];autosize=1;strokeColor=none;fillColor=none;" vertex="1" parent="1">
          <mxGeometry x="-280" y="530" width="30" height="30" as="geometry" />
        </mxCell>
        <mxCell id="BsxrMvfNn_mnEMPm_ctR-71" value="{" style="text;html=1;align=center;verticalAlign=middle;resizable=0;points=[];autosize=1;strokeColor=none;fillColor=none;" vertex="1" parent="1">
          <mxGeometry x="-435" y="188" width="30" height="30" as="geometry" />
        </mxCell>
        <mxCell id="BsxrMvfNn_mnEMPm_ctR-72" value="}" style="text;html=1;align=center;verticalAlign=middle;resizable=0;points=[];autosize=1;strokeColor=none;fillColor=none;" vertex="1" parent="1">
          <mxGeometry x="-290" y="310" width="30" height="30" as="geometry" />
        </mxCell>
        <mxCell id="BsxrMvfNn_mnEMPm_ctR-73" value="{" style="text;html=1;align=center;verticalAlign=middle;resizable=0;points=[];autosize=1;strokeColor=none;fillColor=none;" vertex="1" parent="1">
          <mxGeometry x="-255" y="128" width="30" height="30" as="geometry" />
        </mxCell>
        <mxCell id="BsxrMvfNn_mnEMPm_ctR-74" value="}" style="text;html=1;align=center;verticalAlign=middle;resizable=0;points=[];autosize=1;strokeColor=none;fillColor=none;" vertex="1" parent="1">
          <mxGeometry x="-120" y="218" width="30" height="30" as="geometry" />
        </mxCell>
        <mxCell id="BsxrMvfNn_mnEMPm_ctR-75" value="{" style="text;html=1;align=center;verticalAlign=middle;resizable=0;points=[];autosize=1;strokeColor=none;fillColor=none;" vertex="1" parent="1">
          <mxGeometry x="-60" y="138" width="30" height="30" as="geometry" />
        </mxCell>
        <mxCell id="BsxrMvfNn_mnEMPm_ctR-76" value="}" style="text;html=1;align=center;verticalAlign=middle;resizable=0;points=[];autosize=1;strokeColor=none;fillColor=none;" vertex="1" parent="1">
          <mxGeometry x="95" y="538" width="30" height="30" as="geometry" />
        </mxCell>
        <mxCell id="BsxrMvfNn_mnEMPm_ctR-77" value="{" style="text;html=1;align=center;verticalAlign=middle;resizable=0;points=[];autosize=1;strokeColor=none;fillColor=none;" vertex="1" parent="1">
          <mxGeometry x="-40" y="188" width="30" height="30" as="geometry" />
        </mxCell>
        <mxCell id="BsxrMvfNn_mnEMPm_ctR-78" value="}" style="text;html=1;align=center;verticalAlign=middle;resizable=0;points=[];autosize=1;strokeColor=none;fillColor=none;" vertex="1" parent="1">
          <mxGeometry x="110" y="298" width="30" height="30" as="geometry" />
        </mxCell>
        <mxCell id="BsxrMvfNn_mnEMPm_ctR-79" value="{" style="text;html=1;align=center;verticalAlign=middle;resizable=0;points=[];autosize=1;strokeColor=none;fillColor=none;" vertex="1" parent="1">
          <mxGeometry x="140" y="128" width="30" height="30" as="geometry" />
        </mxCell>
        <mxCell id="BsxrMvfNn_mnEMPm_ctR-81" value="}" style="text;html=1;align=center;verticalAlign=middle;resizable=0;points=[];autosize=1;strokeColor=none;fillColor=none;" vertex="1" parent="1">
          <mxGeometry x="215" y="238" width="30" height="30" as="geometry" />
        </mxCell>
        <mxCell id="BsxrMvfNn_mnEMPm_ctR-82" value="{" style="text;html=1;align=center;verticalAlign=middle;resizable=0;points=[];autosize=1;strokeColor=none;fillColor=none;" vertex="1" parent="1">
          <mxGeometry x="315" y="138" width="30" height="30" as="geometry" />
        </mxCell>
        <mxCell id="BsxrMvfNn_mnEMPm_ctR-83" value="}" style="text;html=1;align=center;verticalAlign=middle;resizable=0;points=[];autosize=1;strokeColor=none;fillColor=none;" vertex="1" parent="1">
          <mxGeometry x="565" y="618" width="30" height="30" as="geometry" />
        </mxCell>
        <mxCell id="BsxrMvfNn_mnEMPm_ctR-84" value="{" style="text;html=1;align=center;verticalAlign=middle;resizable=0;points=[];autosize=1;strokeColor=none;fillColor=none;" vertex="1" parent="1">
          <mxGeometry x="345" y="338" width="30" height="30" as="geometry" />
        </mxCell>
        <mxCell id="BsxrMvfNn_mnEMPm_ctR-85" value="}" style="text;html=1;align=center;verticalAlign=middle;resizable=0;points=[];autosize=1;strokeColor=none;fillColor=none;" vertex="1" parent="1">
          <mxGeometry x="435" y="548" width="30" height="30" as="geometry" />
        </mxCell>
      </root>
    </mxGraphModel>
  </diagram>
</mxfile>
